<?xml version="1.0" standalone="no"?>
<!DOCTYPE svg PUBLIC "-//W3C//DTD SVG 20010904//EN"
 "http://www.w3.org/TR/2001/REC-SVG-20010904/DTD/svg10.dtd">
<svg version="1.0" xmlns="http://www.w3.org/2000/svg"
 width="512.000000pt" height="512.000000pt" viewBox="0 0 512.000000 512.000000"
 preserveAspectRatio="xMidYMid meet">
<metadata>
Created by potrace 1.14, written by Peter Selinger 2001-2017
</metadata>
<g transform="translate(0.000000,512.000000) scale(0.100000,-0.100000)"
fill="#000000" stroke="none">
<path d="M495 4571 c-112 -25 -126 -31 -216 -91 -89 -60 -100 -71 -162 -165
-63 -97 -66 -104 -91 -229 l-26 -129 0 -1696 1 -1696 23 -112 c21 -103 28
-120 81 -201 52 -79 68 -95 147 -147 81 -53 98 -60 201 -81 l112 -23 2278 -1
2277 0 0 2300 0 2300 -722 0 -723 0 620 -620 620 -620 -2010 0 -2010 0 620
620 620 620 -760 -1 -760 -1 -120 -27z m-201 -1360 c12 -10 46 -33 76 -51 68
-39 80 -54 80 -100 0 -47 -35 -82 -82 -83 -73 -2 -238 122 -238 179 1 81 100
114 164 55z m650 -141 c38 -39 38 -89 1 -125 -23 -24 -30 -25 -144 -25 -110 0
-122 2 -146 23 -36 30 -38 86 -6 121 30 32 45 35 169 32 94 -1 104 -3 126 -26z
m530 0 c38 -39 38 -89 1 -125 -23 -24 -30 -25 -144 -25 -112 0 -122 2 -147 24
-36 31 -38 84 -5 120 30 32 45 35 169 32 94 -1 104 -3 126 -26z m530 0 c38
-39 38 -89 1 -125 -23 -24 -30 -25 -144 -25 -112 0 -122 2 -147 24 -36 31 -38
84 -5 120 30 32 45 35 169 32 94 -1 104 -3 126 -26z m530 1 c35 -33 36 -92 1
-126 -23 -24 -30 -25 -142 -25 -129 0 -155 9 -174 57 -13 34 5 87 34 101 42
20 52 22 154 19 92 -2 104 -5 127 -26z m530 0 c35 -33 36 -92 1 -126 -23 -24
-30 -25 -142 -25 -129 0 -155 9 -174 57 -13 34 5 87 34 101 42 20 52 22 154
19 92 -2 104 -5 127 -26z m532 -4 c32 -38 32 -90 -1 -122 -23 -24 -30 -25
-143 -25 -104 0 -123 3 -145 20 -31 25 -43 70 -26 102 25 48 59 58 188 55 99
-2 104 -4 127 -30z m499 19 c61 -26 75 -98 29 -141 -25 -24 -34 -25 -144 -25
-102 0 -121 3 -143 20 -59 47 -39 126 38 152 39 12 185 8 220 -6z m530 0 c61
-26 75 -98 29 -141 -25 -24 -33 -25 -146 -25 -119 0 -120 0 -149 29 -16 16
-29 39 -29 51 0 38 29 79 63 89 51 15 193 13 232 -3z m-356 -1078 c98 -47 145
-124 145 -239 1 -69 -2 -80 -34 -133 -104 -171 -343 -173 -452 -3 -31 48 -33
57 -33 137 0 80 2 89 34 138 76 119 214 160 340 100z m-3939 -1468 c109 -71
120 -82 120 -129 0 -47 -35 -81 -82 -81 -40 0 -143 56 -195 106 -47 45 -55 82
-27 122 38 54 78 50 184 -18z m614 -119 c44 -41 37 -110 -15 -136 -33 -18
-212 -21 -254 -5 -37 14 -58 68 -43 110 16 49 54 61 180 58 96 -3 109 -5 132
-27z m530 0 c44 -41 37 -110 -15 -136 -33 -18 -212 -21 -254 -5 -37 14 -58 68
-43 110 16 49 54 61 180 58 96 -3 109 -5 132 -27z m530 0 c18 -17 26 -35 26
-57 0 -77 -31 -94 -169 -94 -117 0 -144 8 -166 50 -13 26 -14 37 -4 67 17 52
52 64 181 61 97 -3 109 -5 132 -27z m530 0 c43 -40 35 -111 -15 -136 -41 -22
-236 -21 -267 1 -34 23 -45 60 -31 101 17 52 52 64 181 61 97 -3 109 -5 132
-27z m530 0 c18 -17 26 -35 26 -57 0 -78 -30 -94 -178 -94 -94 0 -113 3 -135
20 -31 25 -42 65 -26 103 19 46 58 57 181 55 97 -3 109 -5 132 -27z m530 0
c19 -18 26 -35 26 -60 -1 -73 -36 -91 -178 -91 -94 0 -113 3 -135 20 -31 25
-42 65 -26 103 19 46 58 58 181 55 97 -3 109 -5 132 -27z m530 0 c19 -18 26
-35 26 -60 -1 -73 -36 -91 -178 -91 -94 0 -113 3 -135 20 -31 25 -42 65 -26
103 19 46 58 58 181 55 97 -3 109 -5 132 -27z m530 0 c19 -18 26 -35 26 -60
-1 -73 -36 -91 -178 -91 -94 0 -113 3 -135 20 -31 25 -42 65 -26 103 19 46 58
58 181 55 97 -3 109 -5 132 -27z"/>
</g>
</svg>
